<svg width="1302" height="787" xmlns="http://www.w3.org/2000/svg" xmlns:xlink="http://www.w3.org/1999/xlink" xml:space="preserve" overflow="hidden"><defs><clipPath id="clip0"><rect x="2674" y="914" width="1302" height="787"/></clipPath></defs><g clip-path="url(#clip0)" transform="translate(-2674 -914)"><rect x="2675" y="915" width="1299" height="784" fill="#FFFFFF"/><g><path d="M2816.5 1438.55 3887.5 1438.55M2816.5 1338.54 3887.5 1338.54M2816.5 1238.54 3887.5 1238.54M2816.5 1139.54 3887.5 1139.54M2816.5 1039.53 3887.5 1039.53" stroke="#F2F2F2" stroke-width="3.4375" stroke-linejoin="round" stroke-miterlimit="10" fill="none"/></g><g><path d="M2816.5 1388.55 3887.5 1388.55M2816.5 1288.54 3887.5 1288.54M2816.5 1189.54 3887.5 1189.54M2816.5 1089.54 3887.5 1089.54M2816.5 990.5 3887.5 990.5" stroke="#D9D9D9" stroke-width="3.4375" stroke-linejoin="round" stroke-miterlimit="10" fill="none"/></g><g><path d="M2933.6 965.5 2933.6 1487.5M3169.6 965.5 3169.6 1487.5M3404.61 965.5 3404.61 1487.5M3639.62 965.5 3639.62 1487.5M3875.5 965.5 3875.5 1487.5" stroke="#F2F2F2" stroke-width="3.4375" stroke-linejoin="round" stroke-miterlimit="10" fill="none"/></g><g><path d="M3051.6 965.5 3051.6 1487.5M3286.61 965.5 3286.61 1487.5M3522.62 965.5 3522.62 1487.5M3757.5 965.5 3757.5 1487.5" stroke="#D9D9D9" stroke-width="3.4375" stroke-linejoin="round" stroke-miterlimit="10" fill="none"/></g><g><rect x="2816.5" y="965.5" width="1071" height="522" stroke="#D9D9D9" stroke-width="3.4375" stroke-linejoin="round" stroke-miterlimit="10" fill="none"/></g><g><path d="M0 0 0.000360892 522" stroke="#BFBFBF" stroke-width="3.4375" stroke-linejoin="round" stroke-miterlimit="10" fill="none" fill-rule="evenodd" transform="matrix(1 0 0 -1 2816.5 1487.5)"/></g><g><path d="M2816.59 1487.5 2825.5 1487.5M2816.59 1438.55 2825.5 1438.55M2816.59 1388.55 2825.5 1388.55M2816.59 1338.54 2825.5 1338.54M2816.59 1288.54 2825.5 1288.54M2816.59 1238.54 2825.5 1238.54M2816.59 1189.54 2825.5 1189.54M2816.59 1139.54 2825.5 1139.54M2816.59 1089.54 2825.5 1089.54M2816.59 1039.53 2825.5 1039.53M2816.59 990.5 2825.5 990.5M2803.5 1487.5 2816.59 1487.5M2803.5 1388.55 2816.59 1388.55M2803.5 1288.54 2816.59 1288.54M2803.5 1189.54 2816.59 1189.54M2803.5 1089.54 2816.59 1089.54M2803.5 990.5 2816.59 990.5" stroke="#BFBFBF" stroke-width="3.4375" stroke-linejoin="round" stroke-miterlimit="10" fill="none"/></g><g><path d="M2816.5 1487.5 3887.5 1487.5" stroke="#BFBFBF" stroke-width="3.4375" stroke-linejoin="round" stroke-miterlimit="10" fill="none" fill-rule="evenodd"/></g><g><path d="M2816.5 1478.5 2816.5 1487.55M2933.6 1478.5 2933.6 1487.55M3051.6 1478.5 3051.6 1487.55M3169.6 1478.5 3169.6 1487.55M3286.61 1478.5 3286.61 1487.55M3404.61 1478.5 3404.61 1487.55M3522.62 1478.5 3522.62 1487.55M3639.62 1478.5 3639.62 1487.55M3757.62 1478.5 3757.62 1487.55M3875.5 1478.5 3875.5 1487.55M2816.5 1487.55 2816.5 1500.5M3051.6 1487.55 3051.6 1500.5M3286.61 1487.55 3286.61 1500.5M3522.62 1487.55 3522.62 1500.5M3757.62 1487.55 3757.62 1500.5" stroke="#BFBFBF" stroke-width="3.4375" stroke-linejoin="round" stroke-miterlimit="10" fill="none"/></g><g><path d="M2816.5 1140.5 2933.6 1151.54 3051.6 1216.54 3169.6 1353.54 3286.61 1374.55 3404.61 1420.55 3522.62 1421.55 3639.62 1420.55 3757.62 1461.5 3875.5 1445.55" stroke="#E97132" stroke-width="6.875" stroke-linecap="round" stroke-linejoin="round" stroke-miterlimit="10" fill="none"/></g><g><path d="M2827.43 1140.3C2827.43 1146.37 2822.5 1151.3 2816.43 1151.3 2810.35 1151.3 2805.43 1146.37 2805.43 1140.3 2805.43 1134.22 2810.35 1129.3 2816.43 1129.3 2822.5 1129.3 2827.43 1134.22 2827.43 1140.3Z" stroke="#E97132" stroke-width="3.4375" stroke-linejoin="round" stroke-miterlimit="10" fill="#E97132"/><path d="M2944.43 1151.3C2944.43 1157.37 2939.5 1162.3 2933.43 1162.3 2927.35 1162.3 2922.43 1157.37 2922.43 1151.3 2922.43 1145.22 2927.35 1140.3 2933.43 1140.3 2939.5 1140.3 2944.43 1145.22 2944.43 1151.3Z" stroke="#E97132" stroke-width="3.4375" stroke-linejoin="round" stroke-miterlimit="10" fill="#E97132"/><path d="M3062.43 1216.3C3062.43 1222.37 3057.5 1227.3 3051.43 1227.3 3045.35 1227.3 3040.43 1222.37 3040.43 1216.3 3040.43 1210.22 3045.35 1205.3 3051.43 1205.3 3057.5 1205.3 3062.43 1210.22 3062.43 1216.3Z" stroke="#E97132" stroke-width="3.4375" stroke-linejoin="round" stroke-miterlimit="10" fill="#E97132"/><path d="M3180.43 1353.3C3180.43 1359.37 3175.5 1364.3 3169.43 1364.3 3163.35 1364.3 3158.43 1359.37 3158.43 1353.3 3158.43 1347.22 3163.35 1342.3 3169.43 1342.3 3175.5 1342.3 3180.43 1347.22 3180.43 1353.3Z" stroke="#E97132" stroke-width="3.4375" stroke-linejoin="round" stroke-miterlimit="10" fill="#E97132"/><path d="M3297.43 1374.3C3297.43 1380.37 3292.5 1385.3 3286.43 1385.3 3280.35 1385.3 3275.43 1380.37 3275.43 1374.3 3275.43 1368.22 3280.35 1363.3 3286.43 1363.3 3292.5 1363.3 3297.43 1368.22 3297.43 1374.3Z" stroke="#E97132" stroke-width="3.4375" stroke-linejoin="round" stroke-miterlimit="10" fill="#E97132"/><path d="M3415.43 1420.3C3415.43 1426.37 3410.5 1431.3 3404.43 1431.3 3398.35 1431.3 3393.43 1426.37 3393.43 1420.3 3393.43 1414.22 3398.35 1409.3 3404.43 1409.3 3410.5 1409.3 3415.43 1414.22 3415.43 1420.3Z" stroke="#E97132" stroke-width="3.4375" stroke-linejoin="round" stroke-miterlimit="10" fill="#E97132"/><path d="M3533.43 1421.3C3533.43 1427.37 3528.5 1432.3 3522.43 1432.3 3516.35 1432.3 3511.43 1427.37 3511.43 1421.3 3511.43 1415.22 3516.35 1410.3 3522.43 1410.3 3528.5 1410.3 3533.43 1415.22 3533.43 1421.3Z" stroke="#E97132" stroke-width="3.4375" stroke-linejoin="round" stroke-miterlimit="10" fill="#E97132"/><path d="M3650.43 1420.3C3650.43 1426.37 3645.5 1431.3 3639.43 1431.3 3633.35 1431.3 3628.43 1426.37 3628.43 1420.3 3628.43 1414.22 3633.35 1409.3 3639.43 1409.3 3645.5 1409.3 3650.43 1414.22 3650.43 1420.3Z" stroke="#E97132" stroke-width="3.4375" stroke-linejoin="round" stroke-miterlimit="10" fill="#E97132"/><path d="M3768.43 1461.3C3768.43 1467.37 3763.5 1472.3 3757.43 1472.3 3751.35 1472.3 3746.43 1467.37 3746.43 1461.3 3746.43 1455.22 3751.35 1450.3 3757.43 1450.3 3763.5 1450.3 3768.43 1455.22 3768.43 1461.3Z" stroke="#E97132" stroke-width="3.4375" stroke-linejoin="round" stroke-miterlimit="10" fill="#E97132"/><path d="M3886.43 1445.3C3886.43 1451.37 3881.5 1456.3 3875.43 1456.3 3869.35 1456.3 3864.43 1451.37 3864.43 1445.3 3864.43 1439.22 3869.35 1434.3 3875.43 1434.3 3881.5 1434.3 3886.43 1439.22 3886.43 1445.3Z" stroke="#E97132" stroke-width="3.4375" stroke-linejoin="round" stroke-miterlimit="10" fill="#E97132"/></g><g><path d="M2816.5 1410.5 2933.6 1203.54 3051.6 1266.54 3169.6 1050.53 3286.61 1063.54 3404.61 990.5 3522.62 990.5 3639.62 990.5 3757.62 990.5 3875.5 990.5" stroke="#0F9ED5" stroke-width="6.875" stroke-linecap="round" stroke-linejoin="round" stroke-miterlimit="10" fill="none"/></g><g><path d="M2827.43 1410.3C2827.43 1416.37 2822.5 1421.3 2816.43 1421.3 2810.35 1421.3 2805.43 1416.37 2805.43 1410.3 2805.43 1404.22 2810.35 1399.3 2816.43 1399.3 2822.5 1399.3 2827.43 1404.22 2827.43 1410.3Z" stroke="#0F9ED5" stroke-width="3.4375" stroke-linejoin="round" stroke-miterlimit="10" fill="#0F9ED5"/><path d="M2944.43 1203.3C2944.43 1209.37 2939.5 1214.3 2933.43 1214.3 2927.35 1214.3 2922.43 1209.37 2922.43 1203.3 2922.43 1197.22 2927.35 1192.3 2933.43 1192.3 2939.5 1192.3 2944.43 1197.22 2944.43 1203.3Z" stroke="#0F9ED5" stroke-width="3.4375" stroke-linejoin="round" stroke-miterlimit="10" fill="#0F9ED5"/><path d="M3062.43 1266.3C3062.43 1272.37 3057.5 1277.3 3051.43 1277.3 3045.35 1277.3 3040.43 1272.37 3040.43 1266.3 3040.43 1260.22 3045.35 1255.3 3051.43 1255.3 3057.5 1255.3 3062.43 1260.22 3062.43 1266.3Z" stroke="#0F9ED5" stroke-width="3.4375" stroke-linejoin="round" stroke-miterlimit="10" fill="#0F9ED5"/><path d="M3180.43 1050.3C3180.43 1056.37 3175.5 1061.3 3169.43 1061.3 3163.35 1061.3 3158.43 1056.37 3158.43 1050.3 3158.43 1044.22 3163.35 1039.3 3169.43 1039.3 3175.5 1039.3 3180.43 1044.22 3180.43 1050.3Z" stroke="#0F9ED5" stroke-width="3.4375" stroke-linejoin="round" stroke-miterlimit="10" fill="#0F9ED5"/><path d="M3297.43 1063.3C3297.43 1069.37 3292.5 1074.3 3286.43 1074.3 3280.35 1074.3 3275.43 1069.37 3275.43 1063.3 3275.43 1057.22 3280.35 1052.3 3286.43 1052.3 3292.5 1052.3 3297.43 1057.22 3297.43 1063.3Z" stroke="#0F9ED5" stroke-width="3.4375" stroke-linejoin="round" stroke-miterlimit="10" fill="#0F9ED5"/><path d="M3415.43 990.297C3415.43 996.372 3410.5 1001.3 3404.43 1001.3 3398.35 1001.3 3393.43 996.372 3393.43 990.297 3393.43 984.222 3398.35 979.298 3404.43 979.298 3410.5 979.298 3415.43 984.222 3415.43 990.297Z" stroke="#0F9ED5" stroke-width="3.4375" stroke-linejoin="round" stroke-miterlimit="10" fill="#0F9ED5"/><path d="M3533.43 990.297C3533.43 996.372 3528.5 1001.3 3522.43 1001.3 3516.35 1001.3 3511.43 996.372 3511.43 990.297 3511.43 984.222 3516.35 979.298 3522.43 979.298 3528.5 979.298 3533.43 984.222 3533.43 990.297Z" stroke="#0F9ED5" stroke-width="3.4375" stroke-linejoin="round" stroke-miterlimit="10" fill="#0F9ED5"/><path d="M3650.43 990.297C3650.43 996.372 3645.5 1001.3 3639.43 1001.3 3633.35 1001.3 3628.43 996.372 3628.43 990.297 3628.43 984.222 3633.35 979.298 3639.43 979.298 3645.5 979.298 3650.43 984.222 3650.43 990.297Z" stroke="#0F9ED5" stroke-width="3.4375" stroke-linejoin="round" stroke-miterlimit="10" fill="#0F9ED5"/><path d="M3768.43 990.297C3768.43 996.372 3763.5 1001.3 3757.43 1001.3 3751.35 1001.3 3746.43 996.372 3746.43 990.297 3746.43 984.222 3751.35 979.298 3757.43 979.298 3763.5 979.298 3768.43 984.222 3768.43 990.297Z" stroke="#0F9ED5" stroke-width="3.4375" stroke-linejoin="round" stroke-miterlimit="10" fill="#0F9ED5"/><path d="M3886.43 990.297C3886.43 996.372 3881.5 1001.3 3875.43 1001.3 3869.35 1001.3 3864.43 996.372 3864.43 990.297 3864.43 984.222 3869.35 979.298 3875.43 979.298 3881.5 979.298 3886.43 984.222 3886.43 990.297Z" stroke="#0F9ED5" stroke-width="3.4375" stroke-linejoin="round" stroke-miterlimit="10" fill="#0F9ED5"/></g><g><path d="M2816.5 1211.5 2933.6 1105.54 3051.6 990.5 3169.6 990.5 3286.61 990.5 3404.61 990.5 3522.62 1004.53 3639.62 990.5 3757.62 990.5 3875.5 990.5" stroke="#4EA72E" stroke-width="6.875" stroke-linecap="round" stroke-linejoin="round" stroke-miterlimit="10" fill="none"/></g><g><path d="M2827.43 1211.3C2827.43 1217.37 2822.5 1222.3 2816.43 1222.3 2810.35 1222.3 2805.43 1217.37 2805.43 1211.3 2805.43 1205.22 2810.35 1200.3 2816.43 1200.3 2822.5 1200.3 2827.43 1205.22 2827.43 1211.3Z" stroke="#4EA72E" stroke-width="3.4375" stroke-linejoin="round" stroke-miterlimit="10" fill="#4EA72E"/><path d="M2944.43 1105.3C2944.43 1111.37 2939.5 1116.3 2933.43 1116.3 2927.35 1116.3 2922.43 1111.37 2922.43 1105.3 2922.43 1099.22 2927.35 1094.3 2933.43 1094.3 2939.5 1094.3 2944.43 1099.22 2944.43 1105.3Z" stroke="#4EA72E" stroke-width="3.4375" stroke-linejoin="round" stroke-miterlimit="10" fill="#4EA72E"/><path d="M3062.43 990.297C3062.43 996.372 3057.5 1001.3 3051.43 1001.3 3045.35 1001.3 3040.43 996.372 3040.43 990.297 3040.43 984.222 3045.35 979.298 3051.43 979.298 3057.5 979.298 3062.43 984.222 3062.43 990.297Z" stroke="#4EA72E" stroke-width="3.4375" stroke-linejoin="round" stroke-miterlimit="10" fill="#4EA72E"/><path d="M3180.43 990.297C3180.43 996.372 3175.5 1001.3 3169.43 1001.3 3163.35 1001.3 3158.43 996.372 3158.43 990.297 3158.43 984.222 3163.35 979.298 3169.43 979.298 3175.5 979.298 3180.43 984.222 3180.43 990.297Z" stroke="#4EA72E" stroke-width="3.4375" stroke-linejoin="round" stroke-miterlimit="10" fill="#4EA72E"/><path d="M3297.43 990.297C3297.43 996.372 3292.5 1001.3 3286.43 1001.3 3280.35 1001.3 3275.43 996.372 3275.43 990.297 3275.43 984.222 3280.35 979.298 3286.43 979.298 3292.5 979.298 3297.43 984.222 3297.43 990.297Z" stroke="#4EA72E" stroke-width="3.4375" stroke-linejoin="round" stroke-miterlimit="10" fill="#4EA72E"/><path d="M3415.43 990.297C3415.43 996.372 3410.5 1001.3 3404.43 1001.3 3398.35 1001.3 3393.43 996.372 3393.43 990.297 3393.43 984.222 3398.35 979.298 3404.43 979.298 3410.5 979.298 3415.43 984.222 3415.43 990.297Z" stroke="#4EA72E" stroke-width="3.4375" stroke-linejoin="round" stroke-miterlimit="10" fill="#4EA72E"/><path d="M3533.43 1004.3C3533.43 1010.37 3528.5 1015.3 3522.43 1015.3 3516.35 1015.3 3511.43 1010.37 3511.43 1004.3 3511.43 998.222 3516.35 993.297 3522.43 993.297 3528.5 993.297 3533.43 998.222 3533.43 1004.3Z" stroke="#4EA72E" stroke-width="3.4375" stroke-linejoin="round" stroke-miterlimit="10" fill="#4EA72E"/><path d="M3650.43 990.297C3650.43 996.372 3645.5 1001.3 3639.43 1001.3 3633.35 1001.3 3628.43 996.372 3628.43 990.297 3628.43 984.222 3633.35 979.298 3639.43 979.298 3645.5 979.298 3650.43 984.222 3650.43 990.297Z" stroke="#4EA72E" stroke-width="3.4375" stroke-linejoin="round" stroke-miterlimit="10" fill="#4EA72E"/><path d="M3768.43 990.297C3768.43 996.372 3763.5 1001.3 3757.43 1001.3 3751.35 1001.3 3746.43 996.372 3746.43 990.297 3746.43 984.222 3751.35 979.298 3757.43 979.298 3763.5 979.298 3768.43 984.222 3768.43 990.297Z" stroke="#4EA72E" stroke-width="3.4375" stroke-linejoin="round" stroke-miterlimit="10" fill="#4EA72E"/><path d="M3886.43 990.297C3886.43 996.372 3881.5 1001.3 3875.43 1001.3 3869.35 1001.3 3864.43 996.372 3864.43 990.297 3864.43 984.222 3869.35 979.298 3875.43 979.298 3881.5 979.298 3886.43 984.222 3886.43 990.297Z" stroke="#4EA72E" stroke-width="3.4375" stroke-linejoin="round" stroke-miterlimit="10" fill="#4EA72E"/></g><g><text fill="#595959" font-family="Aptos Narrow,Aptos Narrow_MSFontService,sans-serif" font-weight="400" font-stretch="semi-condensed" font-size="41" transform="matrix(1 0 0 1 2757.25 1499)">0</text></g><g><text fill="#595959" font-family="Aptos Narrow,Aptos Narrow_MSFontService,sans-serif" font-weight="400" font-stretch="semi-condensed" font-size="41" transform="matrix(1 0 0 1 2725.62 1400)">0,2</text></g><g><text fill="#595959" font-family="Aptos Narrow,Aptos Narrow_MSFontService,sans-serif" font-weight="400" font-stretch="semi-condensed" font-size="41" transform="matrix(1 0 0 1 2725.62 1300)">0,4</text></g><g><text fill="#595959" font-family="Aptos Narrow,Aptos Narrow_MSFontService,sans-serif" font-weight="400" font-stretch="semi-condensed" font-size="41" transform="matrix(1 0 0 1 2725.62 1201)">0,6</text></g><g><text fill="#595959" font-family="Aptos Narrow,Aptos Narrow_MSFontService,sans-serif" font-weight="400" font-stretch="semi-condensed" font-size="41" transform="matrix(1 0 0 1 2725.62 1101)">0,8</text></g><g><text fill="#595959" font-family="Aptos Narrow,Aptos Narrow_MSFontService,sans-serif" font-weight="400" font-stretch="semi-condensed" font-size="41" transform="matrix(1 0 0 1 2757.25 1002)">1</text></g><g><text fill="#595959" font-family="Aptos Narrow,Aptos Narrow_MSFontService,sans-serif" font-weight="400" font-stretch="semi-condensed" font-size="41" transform="matrix(1 0 0 1 2805.78 1553)">1</text></g><g><text fill="#595959" font-family="Aptos Narrow,Aptos Narrow_MSFontService,sans-serif" font-weight="400" font-stretch="semi-condensed" font-size="41" transform="matrix(1 0 0 1 3041.12 1553)">3</text></g><g><text fill="#595959" font-family="Aptos Narrow,Aptos Narrow_MSFontService,sans-serif" font-weight="400" font-stretch="semi-condensed" font-size="41" transform="matrix(1 0 0 1 3276.45 1553)">5</text></g><g><text fill="#595959" font-family="Aptos Narrow,Aptos Narrow_MSFontService,sans-serif" font-weight="400" font-stretch="semi-condensed" font-size="41" transform="matrix(1 0 0 1 3511.79 1553)">7</text></g><g><text fill="#595959" font-family="Aptos Narrow,Aptos Narrow_MSFontService,sans-serif" font-weight="400" font-stretch="semi-condensed" font-size="41" transform="matrix(1 0 0 1 3747.13 1553)">9</text></g><g><path d="M2974.5 1632.5 3062.5 1632.5" stroke="#E97132" stroke-width="6.875" stroke-linecap="round" stroke-linejoin="round" stroke-miterlimit="10" fill="none" fill-rule="evenodd"/></g><g><path d="M3029 1632C3029 1638.07 3024.07 1643 3018 1643 3011.93 1643 3007 1638.07 3007 1632 3007 1625.92 3011.93 1621 3018 1621 3024.07 1621 3029 1625.92 3029 1632Z" stroke="#E97132" stroke-width="3.4375" stroke-linejoin="round" stroke-miterlimit="10" fill="#E97132"/></g><g><text fill="#595959" font-family="Aptos Narrow,Aptos Narrow_MSFontService,sans-serif" font-weight="400" font-stretch="semi-condensed" font-size="41" transform="matrix(1 0 0 1 3072.23 1644)">Loss</text></g><g><path d="M3194.5 1632.5 3282.5 1632.5" stroke="#0F9ED5" stroke-width="6.875" stroke-linecap="round" stroke-linejoin="round" stroke-miterlimit="10" fill="none" fill-rule="evenodd"/></g><g><path d="M3249 1632C3249 1638.07 3244.07 1643 3238 1643 3231.93 1643 3227 1638.07 3227 1632 3227 1625.92 3231.93 1621 3238 1621 3244.07 1621 3249 1625.92 3249 1632Z" stroke="#0F9ED5" stroke-width="3.4375" stroke-linejoin="round" stroke-miterlimit="10" fill="#0F9ED5"/></g><g><text fill="#595959" font-family="Aptos Narrow,Aptos Narrow_MSFontService,sans-serif" font-weight="400" font-stretch="semi-condensed" font-size="41" transform="matrix(1 0 0 1 3291.52 1644)">Recall</text></g><g><path d="M3440.5 1632.5 3528.5 1632.5" stroke="#4EA72E" stroke-width="6.875" stroke-linecap="round" stroke-linejoin="round" stroke-miterlimit="10" fill="none" fill-rule="evenodd"/></g><g><path d="M3495 1632C3495 1638.07 3490.07 1643 3484 1643 3477.93 1643 3473 1638.07 3473 1632 3473 1625.92 3477.93 1621 3484 1621 3490.07 1621 3495 1625.92 3495 1632Z" stroke="#4EA72E" stroke-width="3.4375" stroke-linejoin="round" stroke-miterlimit="10" fill="#4EA72E"/></g><g><text fill="#595959" font-family="Aptos Narrow,Aptos Narrow_MSFontService,sans-serif" font-weight="400" font-stretch="semi-condensed" font-size="41" transform="matrix(1 0 0 1 3537.44 1644)">Precision</text></g><rect x="2675.5" y="915.5" width="1299" height="784" stroke="#D9D9D9" stroke-width="3.4375" stroke-linejoin="round" stroke-miterlimit="10" fill="none"/></g></svg>