<svg width="1302" height="775" xmlns="http://www.w3.org/2000/svg" xmlns:xlink="http://www.w3.org/1999/xlink" xml:space="preserve" overflow="hidden"><defs><clipPath id="clip0"><rect x="2670" y="899" width="1302" height="775"/></clipPath></defs><g clip-path="url(#clip0)" transform="translate(-2670 -899)"><rect x="2671" y="900" width="1299" height="772" fill="#FFFFFF"/><g><path d="M2832.5 1412.55 3882.5 1412.55M2832.5 1315.54 3882.5 1315.54M2832.5 1218.54 3882.5 1218.54M2832.5 1120.54 3882.5 1120.54M2832.5 1023.53 3882.5 1023.53" stroke="#F2F2F2" stroke-width="3.4375" stroke-linejoin="round" stroke-miterlimit="10" fill="none"/></g><g><path d="M2832.5 1363.54 3882.5 1363.54M2832.5 1266.54 3882.5 1266.54M2832.5 1169.54 3882.5 1169.54M2832.5 1072.54 3882.5 1072.54M2832.5 975.5 3882.5 975.5" stroke="#D9D9D9" stroke-width="3.4375" stroke-linejoin="round" stroke-miterlimit="10" fill="none"/></g><g><path d="M2948.6 950.5 2948.6 1461.5M3178.6 950.5 3178.6 1461.5M3409.61 950.5 3409.61 1461.5M3640.62 950.5 3640.62 1461.5M3871.5 950.5 3871.5 1461.5" stroke="#F2F2F2" stroke-width="3.4375" stroke-linejoin="round" stroke-miterlimit="10" fill="none"/></g><g><path d="M3063.6 950.5 3063.6 1461.5M3294.61 950.5 3294.61 1461.5M3525.62 950.5 3525.62 1461.5M3755.5 950.5 3755.5 1461.5" stroke="#D9D9D9" stroke-width="3.4375" stroke-linejoin="round" stroke-miterlimit="10" fill="none"/></g><g><rect x="2832.5" y="950.5" width="1050" height="511" stroke="#D9D9D9" stroke-width="3.4375" stroke-linejoin="round" stroke-miterlimit="10" fill="none"/></g><g><path d="M0 0 0.000360892 511" stroke="#BFBFBF" stroke-width="3.4375" stroke-linejoin="round" stroke-miterlimit="10" fill="none" fill-rule="evenodd" transform="matrix(1 0 0 -1 2832.5 1461.5)"/></g><g><path d="M2832.59 1461.5 2842.5 1461.5M2832.59 1412.55 2842.5 1412.55M2832.59 1363.54 2842.5 1363.54M2832.59 1315.54 2842.5 1315.54M2832.59 1266.54 2842.5 1266.54M2832.59 1218.54 2842.5 1218.54M2832.59 1169.54 2842.5 1169.54M2832.59 1120.54 2842.5 1120.54M2832.59 1072.54 2842.5 1072.54M2832.59 1023.53 2842.5 1023.53M2832.59 975.5 2842.5 975.5M2819.5 1461.5 2832.59 1461.5M2819.5 1363.54 2832.59 1363.54M2819.5 1266.54 2832.59 1266.54M2819.5 1169.54 2832.59 1169.54M2819.5 1072.54 2832.59 1072.54M2819.5 975.5 2832.59 975.5" stroke="#BFBFBF" stroke-width="3.4375" stroke-linejoin="round" stroke-miterlimit="10" fill="none"/></g><g><path d="M2832.5 1461.5 3882.5 1461.5" stroke="#BFBFBF" stroke-width="3.4375" stroke-linejoin="round" stroke-miterlimit="10" fill="none" fill-rule="evenodd"/></g><g><path d="M2832.5 1451.5 2832.5 1461.55M2948.6 1451.5 2948.6 1461.55M3063.6 1451.5 3063.6 1461.55M3178.6 1451.5 3178.6 1461.55M3294.61 1451.5 3294.61 1461.55M3409.61 1451.5 3409.61 1461.55M3525.62 1451.5 3525.62 1461.55M3640.62 1451.5 3640.62 1461.55M3755.62 1451.5 3755.62 1461.55M3871.5 1451.5 3871.5 1461.55M2832.5 1461.55 2832.5 1474.5M3063.6 1461.55 3063.6 1474.5M3294.61 1461.55 3294.61 1474.5M3525.62 1461.55 3525.62 1474.5M3755.62 1461.55 3755.62 1474.5" stroke="#BFBFBF" stroke-width="3.4375" stroke-linejoin="round" stroke-miterlimit="10" fill="none"/></g><g><path d="M2832.5 1122.5 2948.6 1132.54 3063.6 1195.54 3178.6 1330.54 3294.61 1350.54 3409.61 1395.55 3525.62 1396.55 3640.62 1395.55 3755.62 1435.5 3871.5 1419.55" stroke="#E97132" stroke-width="6.875" stroke-linecap="round" stroke-linejoin="round" stroke-miterlimit="10" fill="none"/></g><g><path d="M2843.35 1122.83C2843.35 1128.9 2838.42 1133.83 2832.35 1133.83 2826.27 1133.83 2821.35 1128.9 2821.35 1122.83 2821.35 1116.75 2826.27 1111.83 2832.35 1111.83 2838.42 1111.83 2843.35 1116.75 2843.35 1122.83Z" stroke="#E97132" stroke-width="3.4375" stroke-linejoin="round" stroke-miterlimit="10" fill="#E97132"/><path d="M2959.35 1132.83C2959.35 1138.9 2954.42 1143.83 2948.35 1143.83 2942.27 1143.83 2937.35 1138.9 2937.35 1132.83 2937.35 1126.75 2942.27 1121.83 2948.35 1121.83 2954.42 1121.83 2959.35 1126.75 2959.35 1132.83Z" stroke="#E97132" stroke-width="3.4375" stroke-linejoin="round" stroke-miterlimit="10" fill="#E97132"/><path d="M3074.35 1195.83C3074.35 1201.9 3069.42 1206.83 3063.35 1206.83 3057.27 1206.83 3052.35 1201.9 3052.35 1195.83 3052.35 1189.75 3057.27 1184.83 3063.35 1184.83 3069.42 1184.83 3074.35 1189.75 3074.35 1195.83Z" stroke="#E97132" stroke-width="3.4375" stroke-linejoin="round" stroke-miterlimit="10" fill="#E97132"/><path d="M3189.35 1330.83C3189.35 1336.9 3184.42 1341.83 3178.35 1341.83 3172.27 1341.83 3167.35 1336.9 3167.35 1330.83 3167.35 1324.75 3172.27 1319.83 3178.35 1319.83 3184.42 1319.83 3189.35 1324.75 3189.35 1330.83Z" stroke="#E97132" stroke-width="3.4375" stroke-linejoin="round" stroke-miterlimit="10" fill="#E97132"/><path d="M3305.35 1350.83C3305.35 1356.9 3300.42 1361.83 3294.35 1361.83 3288.27 1361.83 3283.35 1356.9 3283.35 1350.83 3283.35 1344.75 3288.27 1339.83 3294.35 1339.83 3300.42 1339.83 3305.35 1344.75 3305.35 1350.83Z" stroke="#E97132" stroke-width="3.4375" stroke-linejoin="round" stroke-miterlimit="10" fill="#E97132"/><path d="M3420.35 1395.83C3420.35 1401.9 3415.42 1406.83 3409.35 1406.83 3403.27 1406.83 3398.35 1401.9 3398.35 1395.83 3398.35 1389.75 3403.27 1384.83 3409.35 1384.83 3415.42 1384.83 3420.35 1389.75 3420.35 1395.83Z" stroke="#E97132" stroke-width="3.4375" stroke-linejoin="round" stroke-miterlimit="10" fill="#E97132"/><path d="M3536.35 1396.83C3536.35 1402.9 3531.42 1407.83 3525.35 1407.83 3519.27 1407.83 3514.35 1402.9 3514.35 1396.83 3514.35 1390.75 3519.27 1385.83 3525.35 1385.83 3531.42 1385.83 3536.35 1390.75 3536.35 1396.83Z" stroke="#E97132" stroke-width="3.4375" stroke-linejoin="round" stroke-miterlimit="10" fill="#E97132"/><path d="M3651.35 1395.83C3651.35 1401.9 3646.42 1406.83 3640.35 1406.83 3634.27 1406.83 3629.35 1401.9 3629.35 1395.83 3629.35 1389.75 3634.27 1384.83 3640.35 1384.83 3646.42 1384.83 3651.35 1389.75 3651.35 1395.83Z" stroke="#E97132" stroke-width="3.4375" stroke-linejoin="round" stroke-miterlimit="10" fill="#E97132"/><path d="M3766.35 1435.83C3766.35 1441.9 3761.42 1446.83 3755.35 1446.83 3749.27 1446.83 3744.35 1441.9 3744.35 1435.83 3744.35 1429.75 3749.27 1424.83 3755.35 1424.83 3761.42 1424.83 3766.35 1429.75 3766.35 1435.83Z" stroke="#E97132" stroke-width="3.4375" stroke-linejoin="round" stroke-miterlimit="10" fill="#E97132"/><path d="M3882.35 1419.83C3882.35 1425.9 3877.42 1430.83 3871.35 1430.83 3865.27 1430.83 3860.35 1425.9 3860.35 1419.83 3860.35 1413.75 3865.27 1408.83 3871.35 1408.83 3877.42 1408.83 3882.35 1413.75 3882.35 1419.83Z" stroke="#E97132" stroke-width="3.4375" stroke-linejoin="round" stroke-miterlimit="10" fill="#E97132"/></g><g><path d="M2832.5 1385.5 2948.6 1183.54 3063.6 1245.54 3178.6 1033.53 3294.61 1046.53 3409.61 975.5 3525.62 975.5 3640.62 975.5 3755.62 975.5 3871.5 975.5" stroke="#0F9ED5" stroke-width="6.875" stroke-linecap="round" stroke-linejoin="round" stroke-miterlimit="10" fill="none"/></g><g><path d="M2843.35 1385.83C2843.35 1391.9 2838.42 1396.83 2832.35 1396.83 2826.27 1396.83 2821.35 1391.9 2821.35 1385.83 2821.35 1379.75 2826.27 1374.83 2832.35 1374.83 2838.42 1374.83 2843.35 1379.75 2843.35 1385.83Z" stroke="#0F9ED5" stroke-width="3.4375" stroke-linejoin="round" stroke-miterlimit="10" fill="#0F9ED5"/><path d="M2959.35 1183.83C2959.35 1189.9 2954.42 1194.83 2948.35 1194.83 2942.27 1194.83 2937.35 1189.9 2937.35 1183.83 2937.35 1177.75 2942.27 1172.83 2948.35 1172.83 2954.42 1172.83 2959.35 1177.75 2959.35 1183.83Z" stroke="#0F9ED5" stroke-width="3.4375" stroke-linejoin="round" stroke-miterlimit="10" fill="#0F9ED5"/><path d="M3074.35 1245.83C3074.35 1251.9 3069.42 1256.83 3063.35 1256.83 3057.27 1256.83 3052.35 1251.9 3052.35 1245.83 3052.35 1239.75 3057.27 1234.83 3063.35 1234.83 3069.42 1234.83 3074.35 1239.75 3074.35 1245.83Z" stroke="#0F9ED5" stroke-width="3.4375" stroke-linejoin="round" stroke-miterlimit="10" fill="#0F9ED5"/><path d="M3189.35 1033.83C3189.35 1039.9 3184.42 1044.83 3178.35 1044.83 3172.27 1044.83 3167.35 1039.9 3167.35 1033.83 3167.35 1027.75 3172.27 1022.83 3178.35 1022.83 3184.42 1022.83 3189.35 1027.75 3189.35 1033.83Z" stroke="#0F9ED5" stroke-width="3.4375" stroke-linejoin="round" stroke-miterlimit="10" fill="#0F9ED5"/><path d="M3305.35 1046.83C3305.35 1052.9 3300.42 1057.83 3294.35 1057.83 3288.27 1057.83 3283.35 1052.9 3283.35 1046.83 3283.35 1040.75 3288.27 1035.83 3294.35 1035.83 3300.42 1035.83 3305.35 1040.75 3305.35 1046.83Z" stroke="#0F9ED5" stroke-width="3.4375" stroke-linejoin="round" stroke-miterlimit="10" fill="#0F9ED5"/><path d="M3420.35 975.826C3420.35 981.901 3415.42 986.826 3409.35 986.826 3403.27 986.826 3398.35 981.901 3398.35 975.826 3398.35 969.751 3403.27 964.826 3409.35 964.826 3415.42 964.826 3420.35 969.751 3420.35 975.826Z" stroke="#0F9ED5" stroke-width="3.4375" stroke-linejoin="round" stroke-miterlimit="10" fill="#0F9ED5"/><path d="M3536.35 975.826C3536.35 981.901 3531.42 986.826 3525.35 986.826 3519.27 986.826 3514.35 981.901 3514.35 975.826 3514.35 969.751 3519.27 964.826 3525.35 964.826 3531.42 964.826 3536.35 969.751 3536.35 975.826Z" stroke="#0F9ED5" stroke-width="3.4375" stroke-linejoin="round" stroke-miterlimit="10" fill="#0F9ED5"/><path d="M3651.35 975.826C3651.35 981.901 3646.42 986.826 3640.35 986.826 3634.27 986.826 3629.35 981.901 3629.35 975.826 3629.35 969.751 3634.27 964.826 3640.35 964.826 3646.42 964.826 3651.35 969.751 3651.35 975.826Z" stroke="#0F9ED5" stroke-width="3.4375" stroke-linejoin="round" stroke-miterlimit="10" fill="#0F9ED5"/><path d="M3766.35 975.826C3766.35 981.901 3761.42 986.826 3755.35 986.826 3749.27 986.826 3744.35 981.901 3744.35 975.826 3744.35 969.751 3749.27 964.826 3755.35 964.826 3761.42 964.826 3766.35 969.751 3766.35 975.826Z" stroke="#0F9ED5" stroke-width="3.4375" stroke-linejoin="round" stroke-miterlimit="10" fill="#0F9ED5"/><path d="M3882.35 975.826C3882.35 981.901 3877.42 986.826 3871.35 986.826 3865.27 986.826 3860.35 981.901 3860.35 975.826 3860.35 969.751 3865.27 964.826 3871.35 964.826 3877.42 964.826 3882.35 969.751 3882.35 975.826Z" stroke="#0F9ED5" stroke-width="3.4375" stroke-linejoin="round" stroke-miterlimit="10" fill="#0F9ED5"/></g><g><path d="M2832.5 1190.5 2948.6 1087.54 3063.6 975.5 3178.6 975.5 3294.61 975.5 3409.61 975.5 3525.62 989.533 3640.62 975.5 3755.62 975.5 3871.5 975.5" stroke="#4EA72E" stroke-width="6.875" stroke-linecap="round" stroke-linejoin="round" stroke-miterlimit="10" fill="none"/></g><g><path d="M2843.35 1190.83C2843.35 1196.9 2838.42 1201.83 2832.35 1201.83 2826.27 1201.83 2821.35 1196.9 2821.35 1190.83 2821.35 1184.75 2826.27 1179.83 2832.35 1179.83 2838.42 1179.83 2843.35 1184.75 2843.35 1190.83Z" stroke="#4EA72E" stroke-width="3.4375" stroke-linejoin="round" stroke-miterlimit="10" fill="#4EA72E"/><path d="M2959.35 1087.83C2959.35 1093.9 2954.42 1098.83 2948.35 1098.83 2942.27 1098.83 2937.35 1093.9 2937.35 1087.83 2937.35 1081.75 2942.27 1076.83 2948.35 1076.83 2954.42 1076.83 2959.35 1081.75 2959.35 1087.83Z" stroke="#4EA72E" stroke-width="3.4375" stroke-linejoin="round" stroke-miterlimit="10" fill="#4EA72E"/><path d="M3074.35 975.826C3074.35 981.901 3069.42 986.826 3063.35 986.826 3057.27 986.826 3052.35 981.901 3052.35 975.826 3052.35 969.751 3057.27 964.826 3063.35 964.826 3069.42 964.826 3074.35 969.751 3074.35 975.826Z" stroke="#4EA72E" stroke-width="3.4375" stroke-linejoin="round" stroke-miterlimit="10" fill="#4EA72E"/><path d="M3189.35 975.826C3189.35 981.901 3184.42 986.826 3178.35 986.826 3172.27 986.826 3167.35 981.901 3167.35 975.826 3167.35 969.751 3172.27 964.826 3178.35 964.826 3184.42 964.826 3189.35 969.751 3189.35 975.826Z" stroke="#4EA72E" stroke-width="3.4375" stroke-linejoin="round" stroke-miterlimit="10" fill="#4EA72E"/><path d="M3305.35 975.826C3305.35 981.901 3300.42 986.826 3294.35 986.826 3288.27 986.826 3283.35 981.901 3283.35 975.826 3283.35 969.751 3288.27 964.826 3294.35 964.826 3300.42 964.826 3305.35 969.751 3305.35 975.826Z" stroke="#4EA72E" stroke-width="3.4375" stroke-linejoin="round" stroke-miterlimit="10" fill="#4EA72E"/><path d="M3420.35 975.826C3420.35 981.901 3415.42 986.826 3409.35 986.826 3403.27 986.826 3398.35 981.901 3398.35 975.826 3398.35 969.751 3403.27 964.826 3409.35 964.826 3415.42 964.826 3420.35 969.751 3420.35 975.826Z" stroke="#4EA72E" stroke-width="3.4375" stroke-linejoin="round" stroke-miterlimit="10" fill="#4EA72E"/><path d="M3536.35 989.826C3536.35 995.901 3531.42 1000.83 3525.35 1000.83 3519.27 1000.83 3514.35 995.901 3514.35 989.826 3514.35 983.751 3519.27 978.826 3525.35 978.826 3531.42 978.826 3536.35 983.751 3536.35 989.826Z" stroke="#4EA72E" stroke-width="3.4375" stroke-linejoin="round" stroke-miterlimit="10" fill="#4EA72E"/><path d="M3651.35 975.826C3651.35 981.901 3646.42 986.826 3640.35 986.826 3634.27 986.826 3629.35 981.901 3629.35 975.826 3629.35 969.751 3634.27 964.826 3640.35 964.826 3646.42 964.826 3651.35 969.751 3651.35 975.826Z" stroke="#4EA72E" stroke-width="3.4375" stroke-linejoin="round" stroke-miterlimit="10" fill="#4EA72E"/><path d="M3766.35 975.826C3766.35 981.901 3761.42 986.826 3755.35 986.826 3749.27 986.826 3744.35 981.901 3744.35 975.826 3744.35 969.751 3749.27 964.826 3755.35 964.826 3761.42 964.826 3766.35 969.751 3766.35 975.826Z" stroke="#4EA72E" stroke-width="3.4375" stroke-linejoin="round" stroke-miterlimit="10" fill="#4EA72E"/><path d="M3882.35 975.826C3882.35 981.901 3877.42 986.826 3871.35 986.826 3865.27 986.826 3860.35 981.901 3860.35 975.826 3860.35 969.751 3865.27 964.826 3871.35 964.826 3877.42 964.826 3882.35 969.751 3882.35 975.826Z" stroke="#4EA72E" stroke-width="3.4375" stroke-linejoin="round" stroke-miterlimit="10" fill="#4EA72E"/></g><g><text fill="#595959" font-family="Aptos Narrow,Aptos Narrow_MSFontService,sans-serif" font-weight="400" font-stretch="semi-condensed" font-size="41" transform="matrix(1 0 0 1 2742.44 1473)">0%</text></g><g><text fill="#595959" font-family="Aptos Narrow,Aptos Narrow_MSFontService,sans-serif" font-weight="400" font-stretch="semi-condensed" font-size="41" transform="matrix(1 0 0 1 2721.54 1375)">20%</text></g><g><text fill="#595959" font-family="Aptos Narrow,Aptos Narrow_MSFontService,sans-serif" font-weight="400" font-stretch="semi-condensed" font-size="41" transform="matrix(1 0 0 1 2721.54 1278)">40%</text></g><g><text fill="#595959" font-family="Aptos Narrow,Aptos Narrow_MSFontService,sans-serif" font-weight="400" font-stretch="semi-condensed" font-size="41" transform="matrix(1 0 0 1 2721.54 1181)">60%</text></g><g><text fill="#595959" font-family="Aptos Narrow,Aptos Narrow_MSFontService,sans-serif" font-weight="400" font-stretch="semi-condensed" font-size="41" transform="matrix(1 0 0 1 2721.54 1084)">80%</text></g><g><text fill="#595959" font-family="Aptos Narrow,Aptos Narrow_MSFontService,sans-serif" font-weight="400" font-stretch="semi-condensed" font-size="41" transform="matrix(1 0 0 1 2700.64 987)">100%</text></g><g><text fill="#595959" font-family="Aptos Narrow,Aptos Narrow_MSFontService,sans-serif" font-weight="400" font-stretch="semi-condensed" font-size="41" transform="matrix(1 0 0 1 2822.35 1526)">1</text></g><g><text fill="#595959" font-family="Aptos Narrow,Aptos Narrow_MSFontService,sans-serif" font-weight="400" font-stretch="semi-condensed" font-size="41" transform="matrix(1 0 0 1 3053.15 1526)">3</text></g><g><text fill="#595959" font-family="Aptos Narrow,Aptos Narrow_MSFontService,sans-serif" font-weight="400" font-stretch="semi-condensed" font-size="41" transform="matrix(1 0 0 1 3283.94 1526)">5</text></g><g><text fill="#595959" font-family="Aptos Narrow,Aptos Narrow_MSFontService,sans-serif" font-weight="400" font-stretch="semi-condensed" font-size="41" transform="matrix(1 0 0 1 3514.74 1526)">7</text></g><g><text fill="#595959" font-family="Aptos Narrow,Aptos Narrow_MSFontService,sans-serif" font-weight="400" font-stretch="semi-condensed" font-size="41" transform="matrix(1 0 0 1 3745.54 1526)">9</text></g><g><path d="M2970.5 1605.5 3058.5 1605.5" stroke="#E97132" stroke-width="6.875" stroke-linecap="round" stroke-linejoin="round" stroke-miterlimit="10" fill="none" fill-rule="evenodd"/></g><g><path d="M3025.02 1605C3025.02 1611.07 3020.31 1616 3014.5 1616 3008.69 1616 3003.98 1611.07 3003.98 1605 3003.98 1598.92 3008.69 1594 3014.5 1594 3020.31 1594 3025.02 1598.92 3025.02 1605Z" stroke="#E97132" stroke-width="3.4375" stroke-linejoin="round" stroke-miterlimit="10" fill="#E97132"/></g><g><text fill="#595959" font-family="Aptos Narrow,Aptos Narrow_MSFontService,sans-serif" font-weight="400" font-stretch="semi-condensed" font-size="41" transform="matrix(1 0 0 1 3068.15 1617)">Loss</text></g><g><path d="M3190.5 1605.5 3278.5 1605.5" stroke="#0F9ED5" stroke-width="6.875" stroke-linecap="round" stroke-linejoin="round" stroke-miterlimit="10" fill="none" fill-rule="evenodd"/></g><g><path d="M3245.02 1605C3245.02 1611.07 3240.31 1616 3234.5 1616 3228.69 1616 3223.98 1611.07 3223.98 1605 3223.98 1598.92 3228.69 1594 3234.5 1594 3240.31 1594 3245.02 1598.92 3245.02 1605Z" stroke="#0F9ED5" stroke-width="3.4375" stroke-linejoin="round" stroke-miterlimit="10" fill="#0F9ED5"/></g><g><text fill="#595959" font-family="Aptos Narrow,Aptos Narrow_MSFontService,sans-serif" font-weight="400" font-stretch="semi-condensed" font-size="41" transform="matrix(1 0 0 1 3287.44 1617)">Recall</text></g><g><path d="M3436.5 1605.5 3524.5 1605.5" stroke="#4EA72E" stroke-width="6.875" stroke-linecap="round" stroke-linejoin="round" stroke-miterlimit="10" fill="none" fill-rule="evenodd"/></g><g><path d="M3491 1605C3491 1611.07 3486.07 1616 3480 1616 3473.93 1616 3469 1611.07 3469 1605 3469 1598.92 3473.93 1594 3480 1594 3486.07 1594 3491 1598.92 3491 1605Z" stroke="#4EA72E" stroke-width="3.4375" stroke-linejoin="round" stroke-miterlimit="10" fill="#4EA72E"/></g><g><text fill="#595959" font-family="Aptos Narrow,Aptos Narrow_MSFontService,sans-serif" font-weight="400" font-stretch="semi-condensed" font-size="41" transform="matrix(1 0 0 1 3533.36 1617)">Precision</text></g><rect x="2671.5" y="900.5" width="1299" height="772" stroke="#D9D9D9" stroke-width="3.4375" stroke-linejoin="round" stroke-miterlimit="10" fill="none"/></g></svg>